<mxfile host="app.diagrams.net" agent="Mozilla/5.0 (Windows NT 10.0; Win64; x64) AppleWebKit/537.36 (KHTML, like Gecko) Chrome/135.0.0.0 Safari/537.36" version="24.7.16">
  <diagram name="Stránka-1" id="iqPWe5vi_Y_kr44j8F4p">
    <mxGraphModel dx="1050" dy="569" grid="1" gridSize="10" guides="1" tooltips="1" connect="1" arrows="1" fold="1" page="1" pageScale="1" pageWidth="827" pageHeight="1169" math="0" shadow="0">
      <root>
        <mxCell id="0" />
        <mxCell id="1" parent="0" />
        <mxCell id="tLYNpAmldiffLmxqfKL2-23" style="rounded=0;orthogonalLoop=1;jettySize=auto;html=1;exitX=0.5;exitY=1;exitDx=0;exitDy=0;entryX=0.5;entryY=0;entryDx=0;entryDy=0;edgeStyle=orthogonalEdgeStyle;elbow=vertical;curved=1;" edge="1" parent="1" source="tLYNpAmldiffLmxqfKL2-1" target="tLYNpAmldiffLmxqfKL2-2">
          <mxGeometry relative="1" as="geometry" />
        </mxCell>
        <mxCell id="tLYNpAmldiffLmxqfKL2-44" style="edgeStyle=orthogonalEdgeStyle;curved=1;rounded=0;orthogonalLoop=1;jettySize=auto;html=1;exitX=0.5;exitY=1;exitDx=0;exitDy=0;" edge="1" parent="1" source="tLYNpAmldiffLmxqfKL2-1" target="tLYNpAmldiffLmxqfKL2-3">
          <mxGeometry relative="1" as="geometry" />
        </mxCell>
        <mxCell id="tLYNpAmldiffLmxqfKL2-1" value="Trať" style="ellipse;whiteSpace=wrap;html=1;" vertex="1" parent="1">
          <mxGeometry x="320" y="70" width="120" height="80" as="geometry" />
        </mxCell>
        <mxCell id="tLYNpAmldiffLmxqfKL2-45" style="edgeStyle=orthogonalEdgeStyle;curved=1;rounded=0;orthogonalLoop=1;jettySize=auto;html=1;exitX=0.5;exitY=1;exitDx=0;exitDy=0;entryX=0.5;entryY=0;entryDx=0;entryDy=0;" edge="1" parent="1" source="tLYNpAmldiffLmxqfKL2-2" target="tLYNpAmldiffLmxqfKL2-4">
          <mxGeometry relative="1" as="geometry" />
        </mxCell>
        <mxCell id="tLYNpAmldiffLmxqfKL2-46" style="edgeStyle=orthogonalEdgeStyle;curved=1;rounded=0;orthogonalLoop=1;jettySize=auto;html=1;exitX=0.5;exitY=1;exitDx=0;exitDy=0;entryX=0.5;entryY=0;entryDx=0;entryDy=0;" edge="1" parent="1" source="tLYNpAmldiffLmxqfKL2-2" target="tLYNpAmldiffLmxqfKL2-5">
          <mxGeometry relative="1" as="geometry" />
        </mxCell>
        <mxCell id="tLYNpAmldiffLmxqfKL2-2" value="Skupina regionů" style="whiteSpace=wrap;html=1;aspect=fixed;" vertex="1" parent="1">
          <mxGeometry x="180" y="220" width="80" height="80" as="geometry" />
        </mxCell>
        <mxCell id="tLYNpAmldiffLmxqfKL2-47" style="edgeStyle=orthogonalEdgeStyle;curved=1;rounded=0;orthogonalLoop=1;jettySize=auto;html=1;exitX=0.5;exitY=1;exitDx=0;exitDy=0;entryX=0.5;entryY=0;entryDx=0;entryDy=0;" edge="1" parent="1" source="tLYNpAmldiffLmxqfKL2-3" target="tLYNpAmldiffLmxqfKL2-6">
          <mxGeometry relative="1" as="geometry" />
        </mxCell>
        <mxCell id="tLYNpAmldiffLmxqfKL2-48" style="edgeStyle=orthogonalEdgeStyle;curved=1;rounded=0;orthogonalLoop=1;jettySize=auto;html=1;exitX=0.5;exitY=1;exitDx=0;exitDy=0;entryX=0.5;entryY=0;entryDx=0;entryDy=0;" edge="1" parent="1" source="tLYNpAmldiffLmxqfKL2-3" target="tLYNpAmldiffLmxqfKL2-7">
          <mxGeometry relative="1" as="geometry" />
        </mxCell>
        <mxCell id="tLYNpAmldiffLmxqfKL2-49" style="edgeStyle=orthogonalEdgeStyle;curved=1;rounded=0;orthogonalLoop=1;jettySize=auto;html=1;exitX=0.5;exitY=1;exitDx=0;exitDy=0;entryX=0.5;entryY=0;entryDx=0;entryDy=0;" edge="1" parent="1" source="tLYNpAmldiffLmxqfKL2-3" target="tLYNpAmldiffLmxqfKL2-8">
          <mxGeometry relative="1" as="geometry" />
        </mxCell>
        <mxCell id="tLYNpAmldiffLmxqfKL2-3" value="" style="whiteSpace=wrap;html=1;aspect=fixed;" vertex="1" parent="1">
          <mxGeometry x="510" y="210" width="80" height="80" as="geometry" />
        </mxCell>
        <mxCell id="tLYNpAmldiffLmxqfKL2-26" style="edgeStyle=orthogonalEdgeStyle;rounded=0;orthogonalLoop=1;jettySize=auto;html=1;exitX=0.75;exitY=1;exitDx=0;exitDy=0;entryX=0.5;entryY=0;entryDx=0;entryDy=0;" edge="1" parent="1" source="tLYNpAmldiffLmxqfKL2-4" target="tLYNpAmldiffLmxqfKL2-11">
          <mxGeometry relative="1" as="geometry" />
        </mxCell>
        <mxCell id="tLYNpAmldiffLmxqfKL2-59" style="edgeStyle=orthogonalEdgeStyle;curved=1;rounded=0;orthogonalLoop=1;jettySize=auto;html=1;entryX=0;entryY=0.25;entryDx=0;entryDy=0;" edge="1" parent="1" source="tLYNpAmldiffLmxqfKL2-55" target="tLYNpAmldiffLmxqfKL2-4">
          <mxGeometry relative="1" as="geometry">
            <Array as="points">
              <mxPoint x="40" y="374" />
            </Array>
          </mxGeometry>
        </mxCell>
        <mxCell id="tLYNpAmldiffLmxqfKL2-4" value="Region" style="shape=step;perimeter=stepPerimeter;whiteSpace=wrap;html=1;fixedSize=1;" vertex="1" parent="1">
          <mxGeometry x="100" y="350" width="120" height="80" as="geometry" />
        </mxCell>
        <mxCell id="tLYNpAmldiffLmxqfKL2-5" value="" style="shape=step;perimeter=stepPerimeter;whiteSpace=wrap;html=1;fixedSize=1;" vertex="1" parent="1">
          <mxGeometry x="220" y="350" width="120" height="80" as="geometry" />
        </mxCell>
        <mxCell id="tLYNpAmldiffLmxqfKL2-6" value="" style="shape=step;perimeter=stepPerimeter;whiteSpace=wrap;html=1;fixedSize=1;" vertex="1" parent="1">
          <mxGeometry x="354" y="350" width="120" height="80" as="geometry" />
        </mxCell>
        <mxCell id="tLYNpAmldiffLmxqfKL2-7" value="" style="shape=step;perimeter=stepPerimeter;whiteSpace=wrap;html=1;fixedSize=1;" vertex="1" parent="1">
          <mxGeometry x="490" y="350" width="120" height="80" as="geometry" />
        </mxCell>
        <mxCell id="tLYNpAmldiffLmxqfKL2-8" value="" style="shape=step;perimeter=stepPerimeter;whiteSpace=wrap;html=1;fixedSize=1;" vertex="1" parent="1">
          <mxGeometry x="630" y="350" width="120" height="80" as="geometry" />
        </mxCell>
        <mxCell id="tLYNpAmldiffLmxqfKL2-30" style="edgeStyle=orthogonalEdgeStyle;rounded=0;orthogonalLoop=1;jettySize=auto;html=1;exitX=0.5;exitY=1;exitDx=0;exitDy=0;entryX=0.5;entryY=0;entryDx=0;entryDy=0;" edge="1" parent="1" source="tLYNpAmldiffLmxqfKL2-32" target="tLYNpAmldiffLmxqfKL2-28">
          <mxGeometry relative="1" as="geometry" />
        </mxCell>
        <mxCell id="tLYNpAmldiffLmxqfKL2-9" value="Vrchol" style="whiteSpace=wrap;html=1;aspect=fixed;" vertex="1" parent="1">
          <mxGeometry x="100" y="470" width="40" height="40" as="geometry" />
        </mxCell>
        <mxCell id="tLYNpAmldiffLmxqfKL2-31" style="edgeStyle=orthogonalEdgeStyle;rounded=0;orthogonalLoop=1;jettySize=auto;html=1;exitX=0.5;exitY=1;exitDx=0;exitDy=0;entryX=0.5;entryY=0;entryDx=0;entryDy=0;strokeColor=default;dashed=1;" edge="1" parent="1" source="tLYNpAmldiffLmxqfKL2-11" target="tLYNpAmldiffLmxqfKL2-29">
          <mxGeometry relative="1" as="geometry" />
        </mxCell>
        <mxCell id="tLYNpAmldiffLmxqfKL2-11" value="" style="whiteSpace=wrap;html=1;aspect=fixed;" vertex="1" parent="1">
          <mxGeometry x="160" y="470" width="40" height="40" as="geometry" />
        </mxCell>
        <mxCell id="tLYNpAmldiffLmxqfKL2-13" value="" style="whiteSpace=wrap;html=1;aspect=fixed;" vertex="1" parent="1">
          <mxGeometry x="220" y="470" width="40" height="40" as="geometry" />
        </mxCell>
        <mxCell id="tLYNpAmldiffLmxqfKL2-14" value="" style="whiteSpace=wrap;html=1;aspect=fixed;" vertex="1" parent="1">
          <mxGeometry x="270" y="470" width="40" height="40" as="geometry" />
        </mxCell>
        <mxCell id="tLYNpAmldiffLmxqfKL2-17" value="" style="whiteSpace=wrap;html=1;aspect=fixed;" vertex="1" parent="1">
          <mxGeometry x="340" y="470" width="40" height="40" as="geometry" />
        </mxCell>
        <mxCell id="tLYNpAmldiffLmxqfKL2-18" value="" style="whiteSpace=wrap;html=1;aspect=fixed;" vertex="1" parent="1">
          <mxGeometry x="414" y="470" width="40" height="40" as="geometry" />
        </mxCell>
        <mxCell id="tLYNpAmldiffLmxqfKL2-19" value="" style="whiteSpace=wrap;html=1;aspect=fixed;" vertex="1" parent="1">
          <mxGeometry x="480" y="470" width="40" height="40" as="geometry" />
        </mxCell>
        <mxCell id="tLYNpAmldiffLmxqfKL2-20" value="" style="whiteSpace=wrap;html=1;aspect=fixed;" vertex="1" parent="1">
          <mxGeometry x="550" y="470" width="40" height="40" as="geometry" />
        </mxCell>
        <mxCell id="tLYNpAmldiffLmxqfKL2-21" value="" style="whiteSpace=wrap;html=1;aspect=fixed;" vertex="1" parent="1">
          <mxGeometry x="620" y="470" width="40" height="40" as="geometry" />
        </mxCell>
        <mxCell id="tLYNpAmldiffLmxqfKL2-22" value="" style="whiteSpace=wrap;html=1;aspect=fixed;" vertex="1" parent="1">
          <mxGeometry x="690" y="470" width="40" height="40" as="geometry" />
        </mxCell>
        <mxCell id="tLYNpAmldiffLmxqfKL2-25" style="edgeStyle=orthogonalEdgeStyle;rounded=0;orthogonalLoop=1;jettySize=auto;html=1;exitX=0.25;exitY=1;exitDx=0;exitDy=0;entryX=0.47;entryY=0.185;entryDx=0;entryDy=0;entryPerimeter=0;" edge="1" parent="1" source="tLYNpAmldiffLmxqfKL2-4" target="tLYNpAmldiffLmxqfKL2-9">
          <mxGeometry relative="1" as="geometry" />
        </mxCell>
        <mxCell id="tLYNpAmldiffLmxqfKL2-71" style="edgeStyle=orthogonalEdgeStyle;curved=1;rounded=0;orthogonalLoop=1;jettySize=auto;html=1;exitX=0.5;exitY=1;exitDx=0;exitDy=0;entryX=0.5;entryY=0;entryDx=0;entryDy=0;" edge="1" parent="1" source="tLYNpAmldiffLmxqfKL2-28" target="tLYNpAmldiffLmxqfKL2-61">
          <mxGeometry relative="1" as="geometry" />
        </mxCell>
        <mxCell id="tLYNpAmldiffLmxqfKL2-28" value="Vrchol" style="whiteSpace=wrap;html=1;aspect=fixed;" vertex="1" parent="1">
          <mxGeometry x="100" y="610" width="40" height="40" as="geometry" />
        </mxCell>
        <mxCell id="tLYNpAmldiffLmxqfKL2-72" style="edgeStyle=orthogonalEdgeStyle;curved=1;rounded=0;orthogonalLoop=1;jettySize=auto;html=1;exitX=0.5;exitY=1;exitDx=0;exitDy=0;entryX=0.5;entryY=0;entryDx=0;entryDy=0;" edge="1" parent="1" source="tLYNpAmldiffLmxqfKL2-29" target="tLYNpAmldiffLmxqfKL2-62">
          <mxGeometry relative="1" as="geometry" />
        </mxCell>
        <mxCell id="tLYNpAmldiffLmxqfKL2-29" value="" style="whiteSpace=wrap;html=1;aspect=fixed;" vertex="1" parent="1">
          <mxGeometry x="160" y="610" width="40" height="40" as="geometry" />
        </mxCell>
        <mxCell id="tLYNpAmldiffLmxqfKL2-33" value="" style="edgeStyle=orthogonalEdgeStyle;rounded=0;orthogonalLoop=1;jettySize=auto;html=1;exitX=0.5;exitY=1;exitDx=0;exitDy=0;entryX=0.5;entryY=0;entryDx=0;entryDy=0;" edge="1" parent="1" source="tLYNpAmldiffLmxqfKL2-9" target="tLYNpAmldiffLmxqfKL2-32">
          <mxGeometry relative="1" as="geometry">
            <mxPoint x="120" y="510" as="sourcePoint" />
            <mxPoint x="120" y="610" as="targetPoint" />
          </mxGeometry>
        </mxCell>
        <mxCell id="tLYNpAmldiffLmxqfKL2-32" value="" style="ellipse;whiteSpace=wrap;html=1;aspect=fixed;" vertex="1" parent="1">
          <mxGeometry x="100" y="540" width="40" height="40" as="geometry" />
        </mxCell>
        <mxCell id="tLYNpAmldiffLmxqfKL2-34" value="" style="whiteSpace=wrap;html=1;aspect=fixed;" vertex="1" parent="1">
          <mxGeometry x="230" y="610" width="40" height="40" as="geometry" />
        </mxCell>
        <mxCell id="tLYNpAmldiffLmxqfKL2-35" value="" style="whiteSpace=wrap;html=1;aspect=fixed;" vertex="1" parent="1">
          <mxGeometry x="280" y="610" width="40" height="40" as="geometry" />
        </mxCell>
        <mxCell id="tLYNpAmldiffLmxqfKL2-36" value="" style="whiteSpace=wrap;html=1;aspect=fixed;" vertex="1" parent="1">
          <mxGeometry x="350" y="610" width="40" height="40" as="geometry" />
        </mxCell>
        <mxCell id="tLYNpAmldiffLmxqfKL2-37" value="" style="whiteSpace=wrap;html=1;aspect=fixed;" vertex="1" parent="1">
          <mxGeometry x="424" y="610" width="40" height="40" as="geometry" />
        </mxCell>
        <mxCell id="tLYNpAmldiffLmxqfKL2-38" value="" style="whiteSpace=wrap;html=1;aspect=fixed;" vertex="1" parent="1">
          <mxGeometry x="490" y="610" width="40" height="40" as="geometry" />
        </mxCell>
        <mxCell id="tLYNpAmldiffLmxqfKL2-39" value="" style="whiteSpace=wrap;html=1;aspect=fixed;" vertex="1" parent="1">
          <mxGeometry x="560" y="610" width="40" height="40" as="geometry" />
        </mxCell>
        <mxCell id="tLYNpAmldiffLmxqfKL2-40" value="" style="whiteSpace=wrap;html=1;aspect=fixed;" vertex="1" parent="1">
          <mxGeometry x="630" y="610" width="40" height="40" as="geometry" />
        </mxCell>
        <mxCell id="tLYNpAmldiffLmxqfKL2-41" value="" style="whiteSpace=wrap;html=1;aspect=fixed;" vertex="1" parent="1">
          <mxGeometry x="700" y="610" width="40" height="40" as="geometry" />
        </mxCell>
        <mxCell id="tLYNpAmldiffLmxqfKL2-53" value="Grafová&lt;div&gt;gramatika&lt;/div&gt;" style="text;html=1;align=center;verticalAlign=middle;resizable=0;points=[];autosize=1;strokeColor=none;fillColor=none;" vertex="1" parent="1">
          <mxGeometry x="5" y="540" width="80" height="40" as="geometry" />
        </mxCell>
        <mxCell id="tLYNpAmldiffLmxqfKL2-54" value="Pravidla&lt;div&gt;Regionů&lt;/div&gt;" style="text;html=1;align=center;verticalAlign=middle;resizable=0;points=[];autosize=1;strokeColor=none;fillColor=none;" vertex="1" parent="1">
          <mxGeometry x="15" y="433" width="70" height="40" as="geometry" />
        </mxCell>
        <mxCell id="tLYNpAmldiffLmxqfKL2-55" value="Tvarová&lt;div&gt;gramatika&lt;/div&gt;" style="text;html=1;align=center;verticalAlign=middle;resizable=0;points=[];autosize=1;strokeColor=none;fillColor=none;" vertex="1" parent="1">
          <mxGeometry x="5" y="250" width="80" height="40" as="geometry" />
        </mxCell>
        <mxCell id="tLYNpAmldiffLmxqfKL2-56" style="edgeStyle=orthogonalEdgeStyle;curved=1;rounded=0;orthogonalLoop=1;jettySize=auto;html=1;exitX=0.485;exitY=0.01;exitDx=0;exitDy=0;exitPerimeter=0;" edge="1" parent="1" source="tLYNpAmldiffLmxqfKL2-55">
          <mxGeometry relative="1" as="geometry">
            <mxPoint x="170" y="140" as="targetPoint" />
            <Array as="points">
              <mxPoint x="44" y="196" />
              <mxPoint x="171" y="196" />
            </Array>
          </mxGeometry>
        </mxCell>
        <mxCell id="tLYNpAmldiffLmxqfKL2-61" value="Dílek" style="whiteSpace=wrap;html=1;aspect=fixed;" vertex="1" parent="1">
          <mxGeometry x="100" y="680" width="40" height="40" as="geometry" />
        </mxCell>
        <mxCell id="tLYNpAmldiffLmxqfKL2-62" value="" style="whiteSpace=wrap;html=1;aspect=fixed;" vertex="1" parent="1">
          <mxGeometry x="160" y="680" width="40" height="40" as="geometry" />
        </mxCell>
        <mxCell id="tLYNpAmldiffLmxqfKL2-63" value="" style="whiteSpace=wrap;html=1;aspect=fixed;" vertex="1" parent="1">
          <mxGeometry x="230" y="680" width="40" height="40" as="geometry" />
        </mxCell>
        <mxCell id="tLYNpAmldiffLmxqfKL2-64" value="" style="whiteSpace=wrap;html=1;aspect=fixed;" vertex="1" parent="1">
          <mxGeometry x="280" y="680" width="40" height="40" as="geometry" />
        </mxCell>
        <mxCell id="tLYNpAmldiffLmxqfKL2-65" value="" style="whiteSpace=wrap;html=1;aspect=fixed;" vertex="1" parent="1">
          <mxGeometry x="350" y="680" width="40" height="40" as="geometry" />
        </mxCell>
        <mxCell id="tLYNpAmldiffLmxqfKL2-66" value="" style="whiteSpace=wrap;html=1;aspect=fixed;" vertex="1" parent="1">
          <mxGeometry x="424" y="680" width="40" height="40" as="geometry" />
        </mxCell>
        <mxCell id="tLYNpAmldiffLmxqfKL2-67" value="" style="whiteSpace=wrap;html=1;aspect=fixed;" vertex="1" parent="1">
          <mxGeometry x="490" y="680" width="40" height="40" as="geometry" />
        </mxCell>
        <mxCell id="tLYNpAmldiffLmxqfKL2-68" value="" style="whiteSpace=wrap;html=1;aspect=fixed;" vertex="1" parent="1">
          <mxGeometry x="560" y="680" width="40" height="40" as="geometry" />
        </mxCell>
        <mxCell id="tLYNpAmldiffLmxqfKL2-69" value="" style="whiteSpace=wrap;html=1;aspect=fixed;" vertex="1" parent="1">
          <mxGeometry x="630" y="680" width="40" height="40" as="geometry" />
        </mxCell>
        <mxCell id="tLYNpAmldiffLmxqfKL2-70" value="" style="whiteSpace=wrap;html=1;aspect=fixed;" vertex="1" parent="1">
          <mxGeometry x="700" y="680" width="40" height="40" as="geometry" />
        </mxCell>
        <mxCell id="tLYNpAmldiffLmxqfKL2-73" value="Výsledek" style="text;html=1;align=center;verticalAlign=middle;resizable=0;points=[];autosize=1;strokeColor=none;fillColor=none;" vertex="1" parent="1">
          <mxGeometry x="10" y="650" width="70" height="30" as="geometry" />
        </mxCell>
      </root>
    </mxGraphModel>
  </diagram>
</mxfile>
